HIERARCHY
ROOT Hips
{
    OFFSET 0.0 0.0 0.0
    CHANNELS 6 Xposition Yposition Zposition Zrotation Xrotation Yrotation
    JOINT LHipJoint
    {
        OFFSET 0.1 0.0 0.0
        CHANNELS 3 Zrotation Xrotation Yrotation
        JOINT LeftHip
        {
            OFFSET 0.10700888931751251 0.0 0.0
            CHANNELS 3 Zrotation Xrotation Yrotation
            JOINT LeftKnee
            {
                OFFSET 0.0 0.0 -0.2152610421180725
                CHANNELS 3 Zrotation Xrotation Yrotation
                JOINT LeftAnkle
                {
                    OFFSET 0.0 0.0 -0.4577053189277649
                    CHANNELS 3 Zrotation Xrotation Yrotation
                    End Site
                    {
                        OFFSET 0.0 -0.1 0.0
                    }
                }
            }
        }
    }
    JOINT lowerback
    {
        OFFSET 0.0 0.0 0.1
        CHANNELS 3 Zrotation Xrotation Yrotation
        JOINT Chest
        {
            OFFSET 0.0 0.0 0.2673105299472809
            CHANNELS 3 Zrotation Xrotation Yrotation
            JOINT Chest2
            {
                OFFSET 0.0 0.0 0.25164544582366943
                CHANNELS 3 Zrotation Xrotation Yrotation
                JOINT LeftCollar
                {
                    OFFSET 0.1 0.0 0.0
                    CHANNELS 3 Zrotation Xrotation Yrotation
                    JOINT LeftShoulder
                    {
                        OFFSET 0.170615553855896 0.0 0.0
                        CHANNELS 3 Zrotation Xrotation Yrotation
                        JOINT LeftElbow
                        {
                            OFFSET 0.34049558639526367 0.0 0.0
                            CHANNELS 3 Zrotation Xrotation Yrotation
                            JOINT LeftWrist
                            {
                                OFFSET 0.26492470502853394 0.0 0.0
                                CHANNELS 3 Zrotation Xrotation Yrotation
                                End Site
                                {
                                    OFFSET 0.1 0.0 0.0
                                }
                            }
                        }
                    }
                }
                JOINT Neck
                {
                    OFFSET 0.0 0.0 0.1
                    CHANNELS 3 Zrotation Xrotation Yrotation
                    JOINT Head
                    {
                        OFFSET 0.0 0.0 0.2987827956676483
                        CHANNELS 3 Zrotation Xrotation Yrotation
                        End Site
                        {
                            OFFSET 0.0 0.0 0.17764617502689362
                        }
                    }
                }
                JOINT RightCollar
                {
                    OFFSET -0.1 0.0 0.0
                    CHANNELS 3 Zrotation Xrotation Yrotation
                    JOINT RightShoulder
                    {
                        OFFSET -0.170615553855896 0.0 0.0
                        CHANNELS 3 Zrotation Xrotation Yrotation
                        JOINT RightElbow
                        {
                            OFFSET -0.34049558639526367 0.0 0.0
                            CHANNELS 3 Zrotation Xrotation Yrotation
                            JOINT RightWrist
                            {
                                OFFSET -0.26492470502853394 0.0 0.0
                                CHANNELS 3 Zrotation Xrotation Yrotation
                                End Site
                                {
                                    OFFSET -0.1 0.0 0.0
                                }
                            }
                        }
                    }
                }
            }
        }
    }
    JOINT RHipJoint
    {
        OFFSET -0.1 0.0 0.0
        CHANNELS 3 Zrotation Xrotation Yrotation
        JOINT RightHip
        {
            OFFSET -0.10700888931751251 0.0 0.0
            CHANNELS 3 Zrotation Xrotation Yrotation
            JOINT RightKnee
            {
                OFFSET 0.0 0.0 -0.2152610421180725
                CHANNELS 3 Zrotation Xrotation Yrotation
                JOINT RightAnkle
                {
                    OFFSET 0.0 0.0 -0.4577053189277649
                    CHANNELS 3 Zrotation Xrotation Yrotation
                    End Site
                    {
                        OFFSET 0.0 -0.1 0.0
                    }
                }
            }
        }
    }
}
MOTION
Frames: 7
Frame Time: 0.06666666666666667
1.6172267351066694e-05 0.12211435288190842 -7.326329068746418e-05 -19.222779595021027 -2.642451719366285 -28.5503428142063 -3.180554681463516e-15 -1.6552148617688095e-32 5.963540027744092e-16 166.04611239247527 20.729461363047307 -94.04897141118617 176.20153952132452 3.053321887465864 -110.43466882497216 -6.620859447075238e-32 1.5902773407317582e-15 4.770832022195274e-15 -3.180554681463516e-15 -1.6552148617688095e-32 5.963540027744092e-16 5.62848527841292 8.825655548160018 -2.6590953570558673 0.15174963235054525 -1.7361735340781796e-07 1.1507403931977641e-06 0.0 0.0 -6.584742113967437e-16 179.07926619460272 -14.874527841807804 -55.68154164175458 -79.04418700914238 -2.547458396155989e-07 -1.0152735619683227e-06 -6.3611093629270335e-15 -3.1805546814635168e-15 -1.7655625192200634e-31 0.0 0.0 -6.584742113967437e-16 108.03549010549595 -63.748409707624965 94.5703222457956 0.0 0.0 -6.584742113967437e-16 -59.95861256240197 -80.71795776297924 71.0312231380991 50.660398858300354 -1.5260449173451103e-06 4.075127465728646e-06 -6.3611093629270335e-15 -6.3611093629270335e-15 1.590277340731758e-15 -3.180554681463516e-15 -1.6552148617688095e-32 5.963540027744092e-16 139.24324877945014 45.9944875192908 -104.90533337493346 -160.10026836202317 -36.37084123975413 -159.13214639381567 6.3611093629270335e-15 -8.827812596100317e-32 -1.5902773407317584e-15
1.0921048669843003e-05 0.12210805714130402 -7.537183410022408e-05 -15.205433303575967 -4.37143225341454 -27.27932831084654 -5.517382872562698e-33 -3.9756933518293955e-16 -1.5902773407317582e-15 166.52174590010736 20.580133262808335 -91.97639707121375 173.31376932918434 4.831483802917881 -103.88560027559606 0.0 0.0 0.0 -5.517382872562698e-33 -3.9756933518293955e-16 -1.5902773407317582e-15 6.112822370049426 9.823658983836621 -4.424309774792478 -4.1712625608659835 1.5482706247969204e-07 -1.1815004065487798e-06 1.5902773407317584e-15 1.0276125600148025e-31 7.40472886778225e-15 -177.2187924024208 -19.40489193312 -55.59109082889326 -87.04394924734027 1.1903462942661423e-06 -1.7231256737340298e-06 0.0 0.0 3.1805546814635168e-15 1.5902773407317584e-15 1.0276125600148025e-31 7.40472886778225e-15 107.52771623734485 -61.56248560198222 89.75845310542147 1.5902773407317584e-15 1.0276125600148025e-31 7.40472886778225e-15 -81.8242939250445 -88.15206262684305 45.88476404711442 51.50153654009073 4.0718525041996884e-06 -4.3193991369115675e-06 -6.3611093629270335e-15 -6.3611093629270335e-15 -3.531125038440127e-31 -5.517382872562698e-33 -3.9756933518293955e-16 -1.5902773407317582e-15 134.31384401945672 49.365329457785215 -99.68630640384511 -155.58469844666894 -39.395310002366145 -156.8022295640073 4.770832022195277e-15 6.620859447075238e-32 1.5902773407317588e-15
1.1926007573492825e-05 0.12209653109312057 -6.95820344844833e-05 -13.755272509252649 -2.072770910466989 -23.780579906877943 1.5902773407317588e-15 1.2414111463266072e-32 8.945310041616142e-16 162.31862457327756 23.359853852989517 -89.57515665988346 175.1092189158863 3.829090452304249 -110.97305728801241 -3.1805546814635168e-15 6.3611093629270335e-15 1.5902773407317584e-15 1.5902773407317588e-15 1.2414111463266072e-32 8.945310041616142e-16 5.197000958789005 7.392017752775089 -8.988392115029686 2.09826140659206 -2.862501996641657e-07 6.6432171197822935e-06 0.0 0.0 -8.883189832993808e-16 145.35517724875032 -6.532863972993854 -42.78857764173321 -47.294214675340804 -2.5793625581199506e-06 7.03815487899897e-07 0.0 0.0 0.0 0.0 0.0 -8.883189832993808e-16 100.27285059003128 -60.193151249585746 86.4429841784134 0.0 0.0 -8.883189832993808e-16 73.349835697325 -85.22366148104254 -157.00549968437588 57.98727740489009 2.733614646270519e-06 -1.6074257570225904e-06 1.3241718894150476e-31 -3.1805546814635164e-15 4.770832022195274e-15 1.5902773407317588e-15 1.2414111463266072e-32 8.945310041616142e-16 125.63232843137641 49.36866778588503 -91.3726527081572 -153.61792857892522 -41.03467242204006 -155.85501821962825 3.1805546814635168e-15 4.4139062980501586e-32 1.5902773407317584e-15
1.614581560716033e-05 0.12210487574338913 -6.801348354201764e-05 -13.992828190128963 -1.8158759974350533 -23.24117568129064 0.0 0.0 -1.4908850069360234e-15 161.27523248507862 21.82321948900672 -85.93470760379317 174.45690413608153 4.322190513673686 -107.0730163968141 -6.361109362927033e-15 8.827812596100317e-32 -1.5902773407317582e-15 0.0 0.0 -1.4908850069360234e-15 6.548923458852506 8.15517953225279 -7.939718076418594 1.0390958657265708 2.2448150297292621e-07 -7.35725127365449e-07 7.951386703658791e-16 -5.267376461149701e-32 -7.591089493649252e-15 154.41852772136514 0.5042681190933295 -47.05231329521575 -50.625578118964086 2.6271647155711694e-07 4.029122796889788e-06 6.361109362927033e-15 0.0 0.0 7.951386703658791e-16 -5.267376461149701e-32 -7.591089493649252e-15 101.24977639119541 -58.732751313984 88.23719903692748 7.951386703658791e-16 -5.267376461149701e-32 -7.591089493649252e-15 29.927099468437603 -82.9724894485865 157.40052934153044 56.67190491217043 2.2193178188247e-06 3.8731548403536387e-07 6.361109362927032e-15 -3.1805546814635164e-15 -4.7708320221952736e-15 0.0 0.0 -1.4908850069360234e-15 126.31159802212355 45.39215785490184 -92.91811532499852 -156.90584302382462 -40.6303543699207 -156.6094520562675 0.0 0.0 -7.951386703658794e-16
1.0916472092503682e-05 0.12210728228092194 -6.860357825644314e-05 -9.256404297291924 -1.9842031575628627 -23.373512422072963 0.0 0.0 4.9696166897867443e-17 159.6757252723806 24.78531036517003 -88.66195831715875 175.1621028161525 4.032715760562917 -107.41859672727522 6.3611093629270335e-15 4.770832022195275e-15 1.590277340731758e-15 0.0 0.0 4.9696166897867443e-17 5.737191396086185 7.620447267679708 -8.743473213980318 -1.2696238931851334 -3.853271662591306e-07 4.553903135534975e-06 0.0 0.0 1.975422634190231e-15 117.43775431976279 -31.098190869668933 -32.824199359103304 -43.17270195581667 1.2728201895950614e-06 2.454421391476871e-06 0.0 0.0 -1.5902773407317584e-15 0.0 0.0 1.975422634190231e-15 107.39548710258737 -65.4783188155688 97.18713054876474 0.0 0.0 1.975422634190231e-15 80.75351595095403 -79.58374711224404 -152.008633784704 62.55093627250989 1.4980821885515183e-06 -5.596865840000207e-06 0.0 0.0 5.5659706925611536e-15 0.0 0.0 4.9696166897867443e-17 123.14787051189961 48.29144497970398 -91.8875457625239 -157.20343360392377 -41.06541782917776 -157.35650836277037 1.5902773407317584e-15 -5.517382872562698e-32 -3.975693351829396e-15
1.3881232007406652e-05 0.12211073189973831 -7.219015969894826e-05 -4.580045010199966 -1.3047331076580517 -21.4194540975578 0.0 0.0 -1.242404172446686e-16 155.07789128686866 29.121049612011696 -82.8954453541047 174.0365388327295 4.374195277510073 -107.62870229223884 -1.3241718894150476e-31 4.770832022195275e-15 3.1805546814635168e-15 0.0 0.0 -1.242404172446686e-16 3.7972727366677943 5.033513287949654 -9.91272906586803 -0.5455340437821115 7.58078417028465e-08 1.284491639740316e-06 0.0 0.0 2.7798793358494603e-16 124.23880536656566 -25.29748516848864 -29.033357075585574 -42.86667561848457 5.974677317094078e-06 3.3802128838811316e-06 0.0 0.0 7.951386703658792e-16 0.0 0.0 2.7798793358494603e-16 105.82389993460714 -60.0331466704857 92.60351573339557 0.0 0.0 2.7798793358494603e-16 91.56957450804096 -78.55263834330714 -137.94748326055733 67.34651618200576 4.2228910343655685e-06 1.8221942781104415e-06 3.1805546814635168e-15 3.1805546814635168e-15 3.1805546814635168e-15 0.0 0.0 -1.242404172446686e-16 105.9675020717832 51.99421797231352 -74.5164294825887 -147.22912931937682 -45.43867647813449 -149.46448107805898 -4.770832022195274e-15 3.1805546814635164e-15 1.3241718894150476e-31
9.864768799161538e-06 0.12210533022880554 -6.944668712094426e-05 -3.725130714070566 -2.98611707165603 -23.128441906040983 3.975693351829396e-16 1.5862475758617757e-32 4.572047354603805e-15 154.62974079059848 30.606350728019073 -84.44110203763638 174.94823384716543 3.8260290601445726 -103.51012893868484 -3.1805546814635168e-15 0.0 0.0 3.975693351829396e-16 1.5862475758617757e-32 4.572047354603805e-15 4.369648513709266 6.037080528663943 -7.593504896234681 -1.9238420315536278 3.1443932425465786e-08 -6.094835066472652e-07 -1.8757215942489153e-34 -2.484808344893373e-17 -8.650239050660055e-16 113.43790903344389 -46.967124383760414 -37.01656916371807 -89.23638670561435 2.1747352286082264e-06 3.495574763703904e-06 0.0 0.0 -1.5902773407317584e-15 -1.8757215942489153e-34 -2.484808344893373e-17 -8.650239050660055e-16 102.83123212101859 -58.91179479041411 89.2074940952056 -1.8757215942489153e-34 -2.484808344893373e-17 -8.650239050660055e-16 67.23278000787595 -77.4899246494605 -160.57247562482976 64.50743184532617 -2.2894637584202227e-06 -1.1902544188306751e-06 -3.1805546814635168e-15 4.4139062980501586e-32 -1.5902773407317584e-15 3.975693351829396e-16 1.5862475758617757e-32 4.572047354603805e-15 110.34224808146203 52.48823878464621 -83.88469557481251 -154.1424953583934 -46.645369756759365 -156.27244959219377 1.1034765745125397e-32 7.95138670365879e-16 -1.590277340731758e-15
